<?xml version="1.0" encoding="UTF-8" standalone="no"?>
<!DOCTYPE svg PUBLIC "-//W3C//DTD SVG 1.1//EN"
 "http://www.w3.org/Graphics/SVG/1.1/DTD/svg11.dtd">
<!-- Generated by graphviz version 2.38.0 (20140413.2041)
 -->
<!-- Title: models_diagram Pages: 1 -->
<svg width="294pt" height="225pt"
 viewBox="0.00 0.00 293.95 225.00" xmlns="http://www.w3.org/2000/svg" xmlns:xlink="http://www.w3.org/1999/xlink">
<g id="graph0" class="graph" transform="scale(1 1) rotate(0) translate(4 221)">
<title>models_diagram</title>
<polygon fill="white" stroke="none" points="-4,4 -4,-221 289.946,-221 289.946,4 -4,4"/>
<!-- _diagram_info -->
<g id="node1" class="node"><title>_diagram_info</title>
<text text-anchor="start" x="8" y="-202.6" font-family="Times,serif" font-size="13.00">Models diagram</text>
<text text-anchor="start" x="8" y="-189.6" font-family="Times,serif" font-size="13.00">Date: May 19 2015 &#45; 09:35</text>
<text text-anchor="start" x="8" y="-176.6" font-family="Times,serif" font-size="13.00">Migration version: 20150411160042</text>
<text text-anchor="start" x="8" y="-163.6" font-family="Times,serif" font-size="13.00">Generated by RailRoady 1.3.0</text>
<text text-anchor="start" x="8" y="-150.6" font-family="Times,serif" font-size="13.00">http://railroady.prestonlee.com</text>
</g>
<!-- Event -->
<g id="node2" class="node"><title>Event</title>
<ellipse fill="none" stroke="black" cx="255.212" cy="-180.5" rx="30.9706" ry="18"/>
<text text-anchor="middle" x="255.212" y="-176.3" font-family="Times,serif" font-size="14.00">Event</text>
</g>
<!-- Relationship -->
<g id="node3" class="node"><title>Relationship</title>
<ellipse fill="none" stroke="black" cx="227.212" cy="-18" rx="54.6248" ry="18"/>
<text text-anchor="middle" x="227.212" y="-13.8" font-family="Times,serif" font-size="14.00">Relationship</text>
</g>
<!-- Event&#45;&gt;Relationship -->
<g id="edge1" class="edge"><title>Event&#45;&gt;Relationship</title>
<path fill="none" stroke="#1b89af" d="M240.184,-156.542C232.24,-143.017 223.304,-125.227 219.212,-108 214.349,-87.5298 216.884,-63.7702 220.343,-45.9515"/>
<ellipse fill="none" stroke="#1b89af" cx="242.384" cy="-160.167" rx="4.00002" ry="4.00002"/>
<polygon fill="#1b89af" stroke="#1b89af" points="220.389,-45.7374 226.896,-36.9111 221.443,-40.8498 222.498,-35.9622 222.498,-35.9622 222.498,-35.9622 221.443,-40.8498 218.099,-35.0134 220.389,-45.7374 220.389,-45.7374"/>
</g>
<!-- User -->
<g id="node4" class="node"><title>User</title>
<ellipse fill="none" stroke="black" cx="255.212" cy="-90" rx="27" ry="18"/>
<text text-anchor="middle" x="255.212" y="-85.8" font-family="Times,serif" font-size="14.00">User</text>
</g>
<!-- Event&#45;&gt;User -->
<g id="edge2" class="edge"><title>Event&#45;&gt;User</title>
<path fill="none" stroke="#db13c5" d="M248.937,-152.447C248.302,-141.504 248.303,-128.899 248.942,-117.965"/>
<polygon fill="#db13c5" stroke="#db13c5" points="248.939,-152.47 245.269,-162.803 249.346,-157.453 249.754,-162.436 249.754,-162.436 249.754,-162.436 249.346,-157.453 254.239,-162.07 248.939,-152.47 248.939,-152.47"/>
<polygon fill="#db13c5" stroke="#db13c5" points="248.966,-117.677 254.277,-108.083 249.379,-112.694 249.793,-107.711 249.793,-107.711 249.793,-107.711 249.379,-112.694 245.308,-107.339 248.966,-117.677 248.966,-117.677"/>
</g>
<!-- User&#45;&gt;Event -->
<g id="edge4" class="edge"><title>User&#45;&gt;Event</title>
<path fill="none" stroke="#2b1a3d" d="M261.354,-115.926C262.155,-127.864 262.164,-142.138 261.383,-154.133"/>
<ellipse fill="none" stroke="#2b1a3d" cx="260.981" cy="-111.696" rx="4" ry="4"/>
<ellipse fill="#2b1a3d" stroke="#2b1a3d" cx="261.012" cy="-158.451" rx="4" ry="4"/>
</g>
<!-- User&#45;&gt;Relationship -->
<g id="edge3" class="edge"><title>User&#45;&gt;Relationship</title>
<path fill="none" stroke="#775ee3" d="M245.523,-64.7779C242.792,-57.9503 239.818,-50.5163 237.077,-43.6632"/>
<ellipse fill="none" stroke="#775ee3" cx="247.09" cy="-68.6971" rx="4.00001" ry="4.00001"/>
<ellipse fill="#775ee3" stroke="#775ee3" cx="235.48" cy="-39.6701" rx="4.00001" ry="4.00001"/>
</g>
</g>
</svg>
